<svg xmlns="http://www.w3.org/2000/svg" width="200.959" height="54.688" viewBox="0 0 200.959 54.688">
  <g id="Final_AutoBid_360_Logo" data-name="Final AutoBid 360 Logo" transform="translate(-8.74 -10.91)">
    <path id="XMLID_35_" d="M24.178,80.96h5.889l4.355,26.121H28.715l-.843-5.817H18.106l-3.293,5.817H8.74Zm-3.8,16.025h6.987l-1.28-10.39h-.074Z" transform="translate(0 -55.722)" fill="#fff"/>
    <path id="XMLID_33_" d="M165.93,135.105h-4.976l.585-2.634h-.074a8.077,8.077,0,0,1-6.621,3.146,5.867,5.867,0,0,1-4.115-1.3,5.39,5.39,0,0,1-1.336-4.537c.049-.3.1-.616.145-.933s.1-.616.166-.9.115-.505.164-.677l2.342-11.084h5.2L155.1,127.276a3.734,3.734,0,0,0-.129.53c-.037.207-.068.421-.092.64s-.049.434-.074.64a4.428,4.428,0,0,0-.037.495,1.635,1.635,0,0,0,.787,1.389,2.908,2.908,0,0,0,1.7.548,4.469,4.469,0,0,0,2.068-.458,5.356,5.356,0,0,0,1.554-1.188,6.03,6.03,0,0,0,1.062-1.683,11.138,11.138,0,0,0,.622-1.939l2.123-10.059h5.2Z" transform="translate(-111.827 -83.747)" fill="#fff"/>
    <path id="XMLID_31_" d="M267.759,93.871h3.731l-.806,3.475H266.99l-1.939,9.4a5.323,5.323,0,0,0-.108.53,2.56,2.56,0,0,0-.037.348,1.527,1.527,0,0,0,.166.785,1.156,1.156,0,0,0,.421.421,1.269,1.269,0,0,0,.567.166c.207.012.409.018.6.018a16.165,16.165,0,0,0,1.865-.11l-.88,4.023c-.536.049-1.074.092-1.61.129s-1.086.055-1.646.055a10.1,10.1,0,0,1-1.81-.164,4.464,4.464,0,0,1-1.591-.6,3.23,3.23,0,0,1-1.536-3.072,5.265,5.265,0,0,1,.074-.824c.049-.3.108-.628.182-.969l2.121-10.133h-3.4l.8-3.475h3.33l1.17-5.743h5.2Z" transform="translate(-198.62 -61.426)" fill="#fff"/>
    <path id="XMLID_28_" d="M322.669,120.924a11.267,11.267,0,0,1,2.158-3.749,10.148,10.148,0,0,1,3.42-2.542,10.664,10.664,0,0,1,4.537-.933,12.177,12.177,0,0,1,3.567.495,7.8,7.8,0,0,1,2.8,1.481,6.544,6.544,0,0,1,1.81,2.487,9.021,9.021,0,0,1,.64,3.549,14.235,14.235,0,0,1-.749,4.663,11.09,11.09,0,0,1-2.176,3.786A10.265,10.265,0,0,1,335.2,132.7a11,11,0,0,1-4.608.933,9.283,9.283,0,0,1-6.31-2.049q-2.359-2.046-2.36-6.109A13.7,13.7,0,0,1,322.669,120.924Zm4.684,6.165a3.974,3.974,0,0,0,.714,1.354,3.445,3.445,0,0,0,2.78,1.28,4.045,4.045,0,0,0,2.506-.785,6.406,6.406,0,0,0,1.72-1.976,9.81,9.81,0,0,0,1.006-2.579,11.334,11.334,0,0,0,.329-2.6,4.838,4.838,0,0,0-.877-3.037,3.48,3.48,0,0,0-2.927-1.133,3.975,3.975,0,0,0-2.469.787,6.262,6.262,0,0,0-1.7,1.957,9.881,9.881,0,0,0-.988,2.542,11.1,11.1,0,0,0-.329,2.579A5.322,5.322,0,0,0,327.352,127.089Z" transform="translate(-249.124 -81.766)" fill="#fff"/>
    <path id="XMLID_24_" d="M430.976,80.96h10.975a22.345,22.345,0,0,1,3.549.256,7.316,7.316,0,0,1,2.671.933,4.465,4.465,0,0,1,1.683,1.865,6.944,6.944,0,0,1,.585,3.054,7.071,7.071,0,0,1-.329,2.139,5.869,5.869,0,0,1-.97,1.865,5.626,5.626,0,0,1-1.554,1.372,5.24,5.24,0,0,1-2.049.7v.074a4.967,4.967,0,0,1,2.872,1.957,5.714,5.714,0,0,1,1.006,3.348,8.085,8.085,0,0,1-.822,3.731,7.713,7.713,0,0,1-2.213,2.669,10.035,10.035,0,0,1-3.183,1.61,12.785,12.785,0,0,1-3.768.548H425.49Zm.986,21.658h7.208a4.857,4.857,0,0,0,3.238-1.062,3.875,3.875,0,0,0,1.262-3.146,2.72,2.72,0,0,0-.421-1.61,2.758,2.758,0,0,0-1.08-.9,4.342,4.342,0,0,0-1.462-.385q-.807-.074-1.573-.074H433.5ZM434.3,91.534h6.512a4.436,4.436,0,0,0,2.727-.859A3.009,3.009,0,0,0,444.7,88.1a2.393,2.393,0,0,0-.824-2.086,3.759,3.759,0,0,0-2.213-.585h-6.073Z" transform="translate(-331.51 -55.722)" fill="#fff"/>
    <path id="XMLID_21_" d="M617.7,104.723l-.074-.074a5.222,5.222,0,0,1-2.4,2.231,7.794,7.794,0,0,1-3.275.7,6.932,6.932,0,0,1-5.322-2.013,7.653,7.653,0,0,1-1.884-5.451,16.945,16.945,0,0,1,.622-4.573,12.32,12.32,0,0,1,1.9-3.988,9.878,9.878,0,0,1,3.219-2.835,9.272,9.272,0,0,1,4.573-1.08,7.566,7.566,0,0,1,1.628.182,6.432,6.432,0,0,1,1.536.548,4.863,4.863,0,0,1,1.28.951,3.917,3.917,0,0,1,.859,1.354h.074l2.086-9.732h5.2L622.2,107.061H617.19Zm-4.627-12.4a6.272,6.272,0,0,0-1.773,1.939,9.05,9.05,0,0,0-1.025,2.561,11.485,11.485,0,0,0-.329,2.634,5.379,5.379,0,0,0,.239,1.61,4.141,4.141,0,0,0,.7,1.354,3.142,3.142,0,0,0,1.151.914,3.727,3.727,0,0,0,1.61.329,4.124,4.124,0,0,0,2.524-.785,6.628,6.628,0,0,0,1.773-1.994A9.693,9.693,0,0,0,619,98.268a10.99,10.99,0,0,0,.348-2.616,4.58,4.58,0,0,0-.914-2.964,3.406,3.406,0,0,0-2.816-1.133A4.259,4.259,0,0,0,613.072,92.322Z" transform="translate(-474.105 -55.706)" fill="#fff"/>
    <g id="XMLID_15_" transform="translate(119.892 22.873)">
      <path id="XMLID_19_" d="M556.43,110.93l5,1.078-3.984,18.913H552.18Z" transform="translate(-552.18 -102.436)" fill="#fff"/>
      <path id="XMLID_18_" d="M564.212,75.409l1.094-5.115a.739.739,0,1,0-1.446-.309L562.766,75.1a.739.739,0,1,0,1.446.309Z" transform="translate(-560.587 -69.399)" fill="#fff"/>
      <path id="XMLID_17_" d="M606.18,78.947l-1.094,5.115a.739.739,0,1,0,1.446.309l1.094-5.115a.739.739,0,0,0-1.446-.309Z" transform="translate(-594.252 -76.529)" fill="#fff"/>
      <path id="XMLID_16_" d="M578.336,80.972l1.951.417,1.072-5.017L576.342,75.3l-1.072,5.017,1.751.374Z" transform="translate(-570.547 -74.093)" fill="#fff"/>
    </g>
    <circle id="XMLID_14_" cx="27.344" cy="27.344" r="27.344" transform="translate(155.011 10.91)" fill="#ffcb05"/>
    <g id="XMLID_10_" transform="translate(158.991 28.322)">
      <g id="XMLID_39_" transform="translate(0 0)">
        <path id="Path_74" data-name="Path 74" d="M750.253,104.123h1.17a7.652,7.652,0,0,0,1.266-.108,3.781,3.781,0,0,0,1.17-.395,2.443,2.443,0,0,0,.871-.79,2.158,2.158,0,0,0,.339-1.237,2.371,2.371,0,0,0-.219-1.047,2.277,2.277,0,0,0-.571-.749,2.2,2.2,0,0,0-.83-.436,3.623,3.623,0,0,0-.994-.137,3.375,3.375,0,0,0-2.463.816,4.775,4.775,0,0,0-1.184,2.45h-3.675a7.326,7.326,0,0,1,2.4-4.79,7.439,7.439,0,0,1,4.98-1.661,10.176,10.176,0,0,1,2.272.258,6.108,6.108,0,0,1,2.015.845,4.4,4.4,0,0,1,2,3.878,4.276,4.276,0,0,1-1.008,2.872A4.488,4.488,0,0,1,755.2,105.4v.055a3.515,3.515,0,0,1,2.068,1.456,4.645,4.645,0,0,1,.6,2.436,6.328,6.328,0,0,1-.626,2.913,5.747,5.747,0,0,1-1.7,2.027,7.232,7.232,0,0,1-2.5,1.184,11.646,11.646,0,0,1-3.007.38,6.91,6.91,0,0,1-5.185-1.757,6.5,6.5,0,0,1-1.483-5.158h3.675a3.6,3.6,0,0,0,.6,2.708,2.963,2.963,0,0,0,2.5,1.021,3.9,3.9,0,0,0,2.612-.9,3.168,3.168,0,0,0,1.062-2.559,2.076,2.076,0,0,0-.775-1.81,3.2,3.2,0,0,0-1.918-.558h-1.389Z" transform="translate(-743.339 -96.04)"/>
      </g>
    </g>
    <g id="XMLID_7_" transform="translate(190.61 28.322)">
      <g id="XMLID_48_" transform="translate(0 0)">
        <path id="Path_75" data-name="Path 75" d="M898.171,105.743a17.241,17.241,0,0,1,.734-2.845,14.286,14.286,0,0,1,1.239-2.626,10.371,10.371,0,0,1,1.755-2.191,7.783,7.783,0,0,1,2.26-1.5,7.516,7.516,0,0,1,5.58-.014,5.383,5.383,0,0,1,1.988,1.483,6.409,6.409,0,0,1,1.184,2.272,10.23,10.23,0,0,1,.395,2.925,17.641,17.641,0,0,1-.558,4.314,14.121,14.121,0,0,1-1.714,4.068,10.024,10.024,0,0,1-2.913,3.035,7.244,7.244,0,0,1-4.15,1.184,5.921,5.921,0,0,1-2.776-.6,5.358,5.358,0,0,1-1.878-1.606,6.572,6.572,0,0,1-1.062-2.328,11.521,11.521,0,0,1-.327-2.79A16.333,16.333,0,0,1,898.171,105.743Zm3.741,4.872a2.919,2.919,0,0,0,.421,1.062,2.206,2.206,0,0,0,.816.722,2.783,2.783,0,0,0,1.307.272,2.814,2.814,0,0,0,1.728-.558,5.064,5.064,0,0,0,1.293-1.456,10.352,10.352,0,0,0,.924-2.013,18.479,18.479,0,0,0,.612-2.231,20.387,20.387,0,0,0,.327-2.109q.1-.994.094-1.647a5.693,5.693,0,0,0-.149-1.334,2.993,2.993,0,0,0-.491-1.088,2.435,2.435,0,0,0-.871-.734,2.929,2.929,0,0,0-2.953.286,5.147,5.147,0,0,0-1.278,1.456,9.749,9.749,0,0,0-.912,2.027,18.917,18.917,0,0,0-.585,2.246q-.218,1.117-.313,2.137c-.063.679-.1,1.239-.1,1.673A6.874,6.874,0,0,0,901.912,110.615Z" transform="translate(-897.929 -96.04)"/>
      </g>
    </g>
    <g id="XMLID_4_" transform="translate(174.994 28.326)">
      <g id="XMLID_49_" transform="translate(0 0)">
        <path id="Path_76" data-name="Path 76" d="M833.2,101.364a2.422,2.422,0,0,0-.693-1.743,2.366,2.366,0,0,0-1.728-.652,3.408,3.408,0,0,0-1.933.544,5.071,5.071,0,0,0-1.389,1.389,9.49,9.49,0,0,0-.965,1.837q-.4.994-.693,1.919l.055.055a4.248,4.248,0,0,1,1.851-1.538,5.9,5.9,0,0,1,2.34-.477,6.327,6.327,0,0,1,2.328.409,4.924,4.924,0,0,1,1.782,1.17,5.145,5.145,0,0,1,1.129,1.837,6.98,6.98,0,0,1,.395,2.409,7.423,7.423,0,0,1-.558,2.872,7.142,7.142,0,0,1-1.552,2.342,7.363,7.363,0,0,1-5.238,2.137,7.421,7.421,0,0,1-3.1-.585,5.574,5.574,0,0,1-2.094-1.62,6.567,6.567,0,0,1-1.184-2.448,12.306,12.306,0,0,1-.368-3.1,17.02,17.02,0,0,1,.626-4.694,11.8,11.8,0,0,1,1.837-3.825,9.079,9.079,0,0,1,2.939-2.585,8.02,8.02,0,0,1,3.933-.953,8.305,8.305,0,0,1,2.328.313,5.238,5.238,0,0,1,1.863.953,4.793,4.793,0,0,1,1.28,1.647,6,6,0,0,1,.544,2.4H833.2Zm-7.077,10.411a2.684,2.684,0,0,0,2.094.912,3.309,3.309,0,0,0,2.641-1.1,4.066,4.066,0,0,0,.953-2.761,3.2,3.2,0,0,0-.83-2.409,3.026,3.026,0,0,0-2.191-.8,3.224,3.224,0,0,0-2.544,1.158,3.87,3.87,0,0,0-.693,1.237,4.456,4.456,0,0,0-.245,1.471A3.317,3.317,0,0,0,826.125,111.774Z" transform="translate(-821.58 -96.06)"/>
      </g>
    </g>
    <g id="Group_1833" data-name="Group 1833" transform="translate(71.847 57.638)">
      <path id="Path_77" data-name="Path 77" d="M318.661,239.38h2.763a5.614,5.614,0,0,1,.894.065,1.806,1.806,0,0,1,.671.235,1.118,1.118,0,0,1,.423.468,1.747,1.747,0,0,1,.147.769,1.769,1.769,0,0,1-.084.538,1.511,1.511,0,0,1-.243.47,1.378,1.378,0,0,1-.391.346,1.285,1.285,0,0,1-.515.174v.018a1.241,1.241,0,0,1,.722.493,1.434,1.434,0,0,1,.254.843,2.048,2.048,0,0,1-.207.939,1.935,1.935,0,0,1-.556.671,2.531,2.531,0,0,1-.8.4,3.228,3.228,0,0,1-.949.139H317.28Zm.247,5.451h1.814a1.228,1.228,0,0,0,.816-.266.979.979,0,0,0,.317-.792.63.63,0,0,0-.378-.63,1.109,1.109,0,0,0-.368-.1c-.135-.012-.266-.018-.4-.018h-1.417Zm.589-2.79h1.638a1.105,1.105,0,0,0,.685-.217.76.76,0,0,0,.288-.648.606.606,0,0,0-.207-.526.944.944,0,0,0-.556-.147h-1.528Z" transform="translate(-317.28 -239.378)" fill="#fff"/>
      <path id="Path_78" data-name="Path 78" d="M351.391,239.38h1.454l-1.391,6.574H350Z" transform="translate(-343.308 -239.378)" fill="#fff"/>
      <path id="Path_79" data-name="Path 79" d="M364.949,239.38h2.375a2.918,2.918,0,0,1,2.086.673,2.484,2.484,0,0,1,.706,1.888,5.13,5.13,0,0,1-.239,1.593,3.577,3.577,0,0,1-.714,1.276,3.261,3.261,0,0,1-1.186.843,4.225,4.225,0,0,1-1.663.3H363.56Zm.313,5.359h1.115a2.261,2.261,0,0,0,.98-.2,2.048,2.048,0,0,0,.718-.552,2.5,2.5,0,0,0,.442-.81,3.1,3.1,0,0,0,.153-.986,2.526,2.526,0,0,0-.078-.648,1.29,1.29,0,0,0-.254-.5,1.167,1.167,0,0,0-.446-.327,1.711,1.711,0,0,0-.659-.115h-1.086Z" transform="translate(-354.094 -239.378)" fill="#fff"/>
      <path id="Path_80" data-name="Path 80" d="M403.4,264.59h1.454l-.3,1.417H403.1Z" transform="translate(-385.547 -259.432)" fill="#fff"/>
      <path id="Path_81" data-name="Path 81" d="M423.991,239.38h2.763a5.614,5.614,0,0,1,.894.065,1.806,1.806,0,0,1,.671.235,1.118,1.118,0,0,1,.423.468,1.747,1.747,0,0,1,.147.769,1.771,1.771,0,0,1-.084.538,1.512,1.512,0,0,1-.243.47,1.379,1.379,0,0,1-.391.346,1.285,1.285,0,0,1-.515.174v.018a1.241,1.241,0,0,1,.722.493,1.434,1.434,0,0,1,.254.843,2.047,2.047,0,0,1-.207.939,1.935,1.935,0,0,1-.556.671,2.53,2.53,0,0,1-.8.4,3.228,3.228,0,0,1-.949.139H422.61Zm.248,5.451h1.814a1.228,1.228,0,0,0,.816-.266.972.972,0,0,0,.317-.792.63.63,0,0,0-.378-.63,1.109,1.109,0,0,0-.368-.1c-.135-.012-.266-.018-.4-.018h-1.417Zm.591-2.79h1.638a1.1,1.1,0,0,0,.685-.217.76.76,0,0,0,.288-.648.606.606,0,0,0-.207-.526.944.944,0,0,0-.556-.147H425.15Z" transform="translate(-401.066 -239.378)" fill="#fff"/>
      <path id="Path_82" data-name="Path 82" d="M462.982,243.193a7.059,7.059,0,0,1-.372,1.252,2.817,2.817,0,0,1-.593.912,2.359,2.359,0,0,1-.9.556,3.9,3.9,0,0,1-1.3.188,4.542,4.542,0,0,1-.943-.1,2.528,2.528,0,0,1-.828-.335,1.845,1.845,0,0,1-.589-.6,1.709,1.709,0,0,1-.225-.912,2.5,2.5,0,0,1,.047-.493c.031-.162.061-.323.092-.483l.8-3.8h1.446l-.8,3.8c-.012.055-.027.119-.041.188s-.031.145-.047.225-.027.155-.037.225a1.71,1.71,0,0,0-.014.188.859.859,0,0,0,.051.28.725.725,0,0,0,.188.286,1.067,1.067,0,0,0,.378.225,1.736,1.736,0,0,0,.616.092,1.867,1.867,0,0,0,.718-.117,1.181,1.181,0,0,0,.452-.321,1.433,1.433,0,0,0,.266-.505c.061-.2.121-.425.176-.677l.818-3.894h1.446Z" transform="translate(-428.605 -239.37)" fill="#fff"/>
      <path id="Path_83" data-name="Path 83" d="M493.415,243.4l-1.575-4.023h1.483l.986,2.8,2.043-2.8h1.7l-3.2,4.089-.505,2.485h-1.454Z" transform="translate(-456.136 -239.378)" fill="#fff"/>
      <path id="Path_84" data-name="Path 84" d="M524.575,264.59h1.454l-.3,1.417H524.27Z" transform="translate(-481.933 -259.432)" fill="#fff"/>
      <path id="Path_85" data-name="Path 85" d="M545.189,239.38h2.375a2.918,2.918,0,0,1,2.086.673,2.483,2.483,0,0,1,.706,1.888,5.13,5.13,0,0,1-.239,1.593,3.577,3.577,0,0,1-.714,1.276,3.261,3.261,0,0,1-1.186.843,4.225,4.225,0,0,1-1.663.3H543.8Zm.311,5.359h1.115a2.261,2.261,0,0,0,.98-.2,2.048,2.048,0,0,0,.718-.552,2.5,2.5,0,0,0,.442-.81,3.1,3.1,0,0,0,.153-.986,2.526,2.526,0,0,0-.078-.648,1.305,1.305,0,0,0-.254-.5,1.167,1.167,0,0,0-.446-.327,1.711,1.711,0,0,0-.659-.115h-1.086Z" transform="translate(-497.469 -239.378)" fill="#fff"/>
      <path id="Path_86" data-name="Path 86" d="M578.751,239.377h3.14a3.029,3.029,0,0,1,.806.084,1.639,1.639,0,0,1,.622.295,1.3,1.3,0,0,1,.4.534,2.106,2.106,0,0,1,.139.81,1.85,1.85,0,0,1-.11.636,1.7,1.7,0,0,1-.313.538,1.815,1.815,0,0,1-.479.391,1.693,1.693,0,0,1-.607.2v.018a.921.921,0,0,1,.335.18.834.834,0,0,1,.207.266,1.342,1.342,0,0,1,.106.335,2.3,2.3,0,0,1,.033.378c0,.147-.008.323-.023.53s-.023.411-.023.614c0,.147.006.286.018.419a1.334,1.334,0,0,0,.074.346h-1.409c-.018-.08-.035-.155-.047-.225a1.24,1.24,0,0,1-.018-.217,6.1,6.1,0,0,1,.037-.667,6.137,6.137,0,0,0,.037-.669.928.928,0,0,0-.07-.391.606.606,0,0,0-.194-.243.728.728,0,0,0-.3-.125,2.05,2.05,0,0,0-.387-.033H579.36l-.544,2.569H577.37Zm.828,2.974h1.336a2.633,2.633,0,0,0,.556-.059,1.567,1.567,0,0,0,.479-.184.964.964,0,0,0,.331-.323,1.017,1.017,0,0,0,.037-.9.6.6,0,0,0-.235-.243.973.973,0,0,0-.342-.11,2.862,2.862,0,0,0-.405-.029h-1.372Z" transform="translate(-524.173 -239.375)" fill="#fff"/>
      <path id="Path_87" data-name="Path 87" d="M611.481,239.38h1.454l-1.391,6.574H610.09Z" transform="translate(-550.2 -239.378)" fill="#fff"/>
      <path id="Path_88" data-name="Path 88" d="M629.445,245.954h-1.63l-.755-6.574h1.446l.434,4.935h.018l2.5-4.935h1.5Z" transform="translate(-563.699 -239.378)" fill="#fff"/>
      <path id="Path_89" data-name="Path 89" d="M653.6,239.38h5.017l-.25,1.215H654.8L654.5,242h3.305l-.239,1.123h-3.305l-.342,1.612h3.628l-.258,1.215H652.22Z" transform="translate(-583.713 -239.378)" fill="#fff"/>
    </g>
    <g id="Group_1834" data-name="Group 1834" transform="translate(165.994 18.243)">
      <path id="Path_90" data-name="Path 90" d="M779.388,54.508a18.442,18.442,0,0,1,29.359.333,9.331,9.331,0,0,1,1.432-.28,20.8,20.8,0,0,0-32.6.157A11.129,11.129,0,0,1,779.388,54.508Z" transform="translate(-777.58 -46.76)"/>
      <path id="Path_91" data-name="Path 91" d="M809.031,203.746a18.437,18.437,0,0,1-29.25-.112,15.069,15.069,0,0,1-1.561.11,20.8,20.8,0,0,0,32.591-.164A11.368,11.368,0,0,1,809.031,203.746Z" transform="translate(-778.089 -171.505)"/>
    </g>
  </g>
</svg>
